# xmcd
#
# Track frame offsets:
#	150
#	13635
#	24854
#	35983
#	46610
#	57689
#	70970
#	83178
#	95268
#	107365
#	117817
#	130792
#	144730
#	156618
#	168442
#	178626
#	192236
#	206039
#	218198
#	229201
#	240523
#	251498
#
# Disc length: 3535 seconds
#
# Revision: 0
# Processed by: cddbd v1.5.2PL0 Copyright (c) Steve Scherf et al.
# Submitted via: EZCDAudioConverter 8.0.2.1
#
DISCID=350dcd16
DTITLE=Tanya Tucker - Delta Dawn-What’s Your Mama’s Name-Would You Lay With Me
DTITLE=You Are So Beautiful 2 CD-01
DYEAR=2018
DGENRE=USA Country
TTITLE0=Delta Dawn (Delta Dawn)
TTITLE1=New York City Song (Delta Dawn)
TTITLE2=Smell The Flowers (Delta Dawn)
TTITLE3=If You Touch Me (You’Ve Got To Love Me) (Delta Dawn)
TTITLE4=He’S All I Got (Delta Dawn)
TTITLE5=The Jamestown Ferry (Delta Dawn)
TTITLE6=Loving You Could Never Be Better (Delta Dawn)
TTITLE7=Soul Song (Delta Dawn)
TTITLE8=Love’S The Answer (Delta Dawn)
TTITLE9=The Happiest Girl In The Whole U.S.A. (Delta Dawn)
TTITLE10=I’M So Lonesome I Could Cry (Delta Dawn)
TTITLE11=What’S Your Mama’S Name (What’S Your Mama’S Name)
TTITLE12=Horseshoe Bend (What’S Your Mama’S Name)
TTITLE13=The Chokin’ Kind (What’S Your Mama’S Name)
TTITLE14=California Cotton Fields (What’S Your Mama’S Name)
TTITLE15=Teddy Bear Song (What’S Your Mama’S Name)
TTITLE16=Blood Red And Goin’ Down (What’S Your Mama’S Name)
TTITLE17=Song Man (What’S Your Mama’S Name)
TTITLE18=The Missing Piece Of Puzzle (What’S Your Mama’S Name)
TTITLE19=Rainy Girl (What’S Your Mama’S Name)
TTITLE20=Pass Me By (What’S Your Mama’S Name)
TTITLE21=Teach Me The Words To Your Song (What’S Your Mama’S Name)
EXTD=
EXTT0=
EXTT1=
EXTT2=
EXTT3=
EXTT4=
EXTT5=
EXTT6=
EXTT7=
EXTT8=
EXTT9=
EXTT10=
EXTT11=
EXTT12=
EXTT13=
EXTT14=
EXTT15=
EXTT16=
EXTT17=
EXTT18=
EXTT19=
EXTT20=
EXTT21=
PLAYORDER=
